<?xml version="1.0" encoding="UTF-8"?>
<svg id="Layer_1" xmlns="http://www.w3.org/2000/svg" version="1.1" viewBox="0 0 1279.1 1219.9">
  <!-- Generator: Adobe Illustrator 30.2.1, SVG Export Plug-In . SVG Version: 2.1.1 Build 1)  -->
  <defs>
    <style>
      .st0 {
        fill: #29e5e5;
      }

      .st1 {
        fill: #3a474c;
      }

      .st2 {
        fill: #29eaea;
      }

      .st3 {
        fill: #8d8f90;
      }

      .st4 {
        fill: #0f262b;
      }

      .st5 {
        fill: #c7c9c9;
      }

      .st6 {
        fill: #151a1d;
      }

      .st7 {
        fill: #138d92;
      }

      .st8 {
        fill: #54565c;
      }

      .st9 {
        fill: #2d3b41;
      }

      .st10 {
        fill: #d2d4d4;
      }

      .st11 {
        fill: #131b1e;
      }

      .st12 {
        fill: #27e5e5;
      }

      .st13 {
        fill: #2cecec;
      }

      .st14 {
        fill: #29e9e9;
      }

      .st15 {
        fill: #56575e;
      }

      .st16 {
        fill: #070809;
      }

      .st17 {
        fill: #737578;
      }

      .st18 {
        fill: #303c42;
      }

      .st19 {
        fill: #e1e1e1;
      }

      .st20 {
        fill: #112226;
      }

      .st21 {
        fill: #16181b;
      }

      .st22 {
        fill: #0b0c0e;
      }

      .st23 {
        fill: #2d4147;
      }

      .st24 {
        fill: #22262b;
      }

      .st25 {
        fill: #5aedf1;
      }

      .st26 {
        fill: #25e3e4;
      }

      .st27 {
        fill: #262a2f;
      }

      .st28 {
        fill: #16aeb0;
      }

      .st29 {
        fill: #33383d;
      }

      .st30 {
        fill: #28e6e6;
      }

      .st31 {
        fill: #2decec;
      }

      .st32 {
        fill: #0d0f10;
      }

      .st33 {
        fill: #15191c;
      }

      .st34 {
        fill: #36393e;
      }

      .st35 {
        fill: #696a6d;
      }

      .st36 {
        fill: #2e373d;
      }

      .st37 {
        fill: #44484d;
      }

      .st38 {
        fill: #2cedee;
      }

      .st39 {
        fill: #21d2d3;
      }

      .st40 {
        fill: #3f4348;
      }

      .st41 {
        fill: #232b30;
      }

      .st42 {
        fill: #232b2f;
      }

      .st43 {
        fill: #07080a;
      }

      .st44 {
        fill: #33363b;
      }

      .st45 {
        fill: #696a6c;
      }

      .st46 {
        fill: #d0d3d2;
      }

      .st47 {
        fill: #7b7d7f;
      }

      .st48 {
        fill: #a1a3a4;
      }

      .st49 {
        fill: #090b0c;
      }

      .st50 {
        fill: #8c8e90;
      }

      .st51 {
        fill: #bdbebe;
      }

      .st52 {
        fill: #060709;
      }

      .st53 {
        fill: #29e6e6;
      }

      .st54 {
        fill: #3c4146;
      }

      .st55 {
        fill: #afb1b1;
      }

      .st56 {
        fill: #dedede;
      }

      .st57 {
        fill: #bcbdbd;
      }

      .st58 {
        fill: #a7a9aa;
      }

      .st59 {
        fill: #a9abac;
      }

      .st60 {
        fill: #21d9da;
      }

      .st61 {
        fill: #ededed;
      }

      .st62 {
        fill: #242b30;
      }

      .st63 {
        fill: #6d6f71;
      }

      .st64 {
        fill: #2aecec;
      }

      .st65 {
        fill: #0e2429;
      }

      .st66 {
        fill: #090b0d;
      }

      .st67 {
        fill: #222b30;
      }

      .st68 {
        fill: #bbbcbc;
      }

      .st69 {
        fill: #54555c;
      }

      .st70 {
        fill: #11282c;
      }

      .st71 {
        fill: #aaacac;
      }

      .st72 {
        fill: #aaacad;
      }

      .st73 {
        fill: #8d8f91;
      }
    </style>
  </defs>
  <g>
    <path d="M291.5,987.3l17.1-27.9h50.8c-5.8-11.3-11.3-21.3-17.2-31.7l-19.7-34.9-40.7,74.8-25.9,47h-34.9c0,0,20.8-38,20.8-38l29-52,27.8-50.1c4.9-8.8,13.6-13,23.4-13.2s19.6,4.6,24.9,13.9l17.8,31,17.1,30,20.2,35.9,23.9,42.9h-36c0,0-14.6-27.4-14.6-27.4-15.7-.5-30.3-.4-45.6-.3h-38.1Z"/>
    <path d="M1200.2,1016.2c-7.9,1.7-14.2-2.1-19.1-7.3l-36.6-39.3-60.9-67.2-.6,39.5c-3.8,2.1-8,.4-12.1.3l-17.9-.5c-.2-19.7-1.1-38.8-.3-58.2.6-13.7,12.1-22.6,25.5-21.5,6.8.6,12.1,4.1,16.8,9.2l64.3,69.4,26.3,28,.3-105.6h31.2c0-.1-.3,132.9-.3,132.9,0,9.9-7.2,18.3-16.7,20.4Z"/>
    <path d="M790.4,985.9l.7,29.3-95.9-.2c-31.3,0-58.6-20.7-65-52.2-6-29.7-2.5-64.2,21.7-85.1,11.4-9.8,25.6-15,40.9-15.1l97.1-.5v28.9c-.1,0-90.5.2-90.5.2-17.5,0-32.4,10.8-37.1,28.2s-3,29.8,1.7,43.5,16.9,22,31.3,22.9h95.1Z"/>
    <path d="M604.9,985.9l.8,29.2h-103.5c-23.4,0-40.6-16.9-41.9-40.4v-111.8c0,0,31.3,0,31.3,0l.5,105c0,10.6,7.2,18.4,18.1,18.1h94.8Z"/>
    <path d="M950,892.5c-19.5-4.4-39-4.6-58.1-.9-22.9,4.4-32.3,25.7-30,48l-32.6.2c-2.7-27.3,8.7-55.2,32.7-68.6,23.5-13,62.8-12.7,88.6-8.7,41.6,6.5,61.4,37.7,57.3,77.6l-31.4-.7c-.3-19.6-4-41.8-26.6-47Z"/>
    <polygon points="94.8 953.9 94.9 1014.9 62.6 1014.9 62.8 977.3 62.8 926 210.5 925.8 210.7 953.9 94.8 953.9"/>
    <path d="M830.5,952.3c14.3-1.6,18.5.9,31.5.9,2.6,15.8,13.4,28.1,29.2,31.7,17.1,3.9,34.5,3.9,51.8,1.1,17.5-2.9,30.1-15.7,32.8-33.4,10.6-2.1,21.3-2.4,32.1-.4-1,34.6-27.9,59.4-61.2,63.1-18.7,2.1-37.2,2.5-55.8-.2-33.9-5-57.8-26.9-60.4-62.8Z"/>
    <path d="M148.6,891.4l-86.2-.2c0-7-1.2-13.4.1-20.1,1.1-5.5,7.1-8.6,12.7-8.6h135.5s-.2,28.9-.2,28.9h-62Z"/>
    <path d="M821.8,1111.5c1.3,12.5-6.4,22.3-18.9,23.4s-28.4,1.2-42.6-.2c-12.3-1.2-19.4-12-18.4-23.3,4.3-.4,7.8-1,11.9-.2-.1,7.2,3.4,12.3,10.5,12.8,12.8.9,25.8,1.9,38.4-.4,5.4-1,6.7-6.7,6.3-10.8s-4.3-8.5-10.1-9l-38.2-3.3c-11.2-1-17.2-8.7-17.4-19.6s5.1-18.7,16-19.9c13.7-1.5,28.1-1.5,41.8-.2,11.7,1.1,19.7,10.6,17.8,22.2-3.6.9-7.5.5-11.2-.7-.4-7-4.9-11.4-11.6-11.6-11.6-.3-23-.4-34.4.6s-5.7,4.1-6.1,7.5c-.8,6.2,2.6,10.4,8.7,10.9l31.2,2.7c12.6,1.1,24.7,4.3,26.2,19Z"/>
    <path d="M440.7,1128c-4.5,5.3-11.3,7.1-17.6,7.5-12.2.8-23.8.3-35.8,0s-23-10.9-21.4-24.2c4.4.3,7.9-.1,12.1.7-.7,6.7,3.2,12,9.8,12.5,12.2,1,24.2,1,36.4,0s5.3-1.7,6.8-3.1,1.9-5.2,1.8-7.9c-.1-5.3-3.3-8.2-8.4-9.1-11.6-2-23.1-1.9-34.9-3-5.4-.5-11.3-1-15.5-4.4s-6.9-11.9-6.5-18.9c.5-9,6.3-16.1,15.7-17,13.8-1.3,27.6-1.1,41.5-.4s19.3,10.5,18,22.1c-3.5-.2-8,1.4-11-.5-3.3-5.2-.6-10.8-10.7-11.3-11.6-.7-22.9-.4-34.3.4s-6.8,4.3-7.1,8.6,2.5,9.9,8.4,10.4l36.9,3c6,.5,12.4,2.6,16.3,7.5,5.8,7.5,5.8,19.6-.6,27.1Z"/>
    <path d="M917.6,1102.2c-11.3,0-21.6,0-32.5-.1-.8,7.2-.6,13.7-.3,21.5h55.8c.8,3.7.1,7.2,0,11.2l-68-.3-.3-73.6h68.3c.9,3.5.6,7.2-.5,10.8h-55.9s.7,20.4.7,20.4h53c.4,3.5.3,6.3,0,10.1h-20.2Z"/>
    <path d="M691.3,1129.6c0,4.2-4.4,5.4-6.7,5.6-3.4.4-5.7-1.3-8.3-3.7l-20.1-21.7c-9.7-10.5-18.7-20.9-29.2-31.3l-.2,55.4c-4.1.5-7.7.7-11.7,0v-70.4c2.5-2.1,10.1-4.4,13.1-1.7l33.9,35.8c5.8,6.1,10.2,12.6,17.1,18.6.6-19,1.1-36.8.2-55.3,4.2-.3,7.9-.3,12.1.2l-.3,68.4Z"/>
    <path d="M562,1102.2l-53.1.3v21.3c-.1,0,55.4.2,55.4.2.6,3.5.7,7-.2,10.7l-67.1-.6v-73c0,0,67.7-.2,67.7-.2.2,3.6.2,6.4,0,10.3l-55.2.7c-.8,6.3-.7,12.9-.5,20.4h53.4s-.4,9.9-.4,9.9Z"/>
    <path d="M1083.9,1014.9h-31.6c0,.1.2-63.7.2-63.7,1.7-1.9,4.3-.8,6.6-1.1,7.9-1.2,15.5-1.6,23.5-.5,1.2,5.9.9,11.5,1,17.5l.3,47.9Z"/>
  </g>
  <g>
    <path class="st16" d="M437.8,268.1c-1.1-3.4-.6-3.7,2-1.3,6-.9,23.2-2.4,28.1-.6s3.8,2.5,1.2,6c0,0-9,12.6-27.1,37.8,22.4-12.2,29.5-6.6,13.2,16.8-12.8,30.9-25,62.1-36.6,93.6,7.5-6.1,15.4-10.8,23.8-13.9,4.5,2.4,4.9,6.9,1.1,13.6,18.3-4.7,35.6-11.6,51.8-20.7-5.3-14.9-6-38.4,5.7-50.1-.9-10.4,6.8-21.9,15.7-25.5,2.8-2.5,3.7-5.1,2.9-7.8,15.4-19,26.4-20.7,33.2-5.3l4.7,1,13,17.6c3.1-6.7,6.7-12.3,10.7-16.8-17.4-11.9-19-37.3-6.7-53.9l6.9-16.6-1.7-1.8,7.1-9.1c-4-4.6,3.4-11.4,7.4-6.2,1.3.6,3.3,1.6,3.2,2.6-.6,5.4-4.9,22-10.6,22.1.7,6.8,0,13.4-1.9,19.7l-5.2,3.2c0,9.9,4.3,22.1,9.6,31.9,5.5-2.8,9.8-3,13.1-.6v-2.7s4.5.1,13.5.3c5.2-8.1,21.1-4.2,17.1,7.5l-13.4,22.4c-6.1,7.6-2.8,9.6,9.8,6.2,9.6-1.9,14.9.5,15.9,7-7.2,15.8-9.7,31.4-7.6,46.6,7.2-10.3,14.1-5.6,20.7,14.1,10.1,12.1,42.5,14.2,48.8-1.6-25.2-61.3,17.5-99.1,67.4-125.9-7.8-.7-16-1.9-24.6-3.6-5.5-25.9,26.9-35.6,46.8-39.7,6.8-4.1,10-12.6,9.7-25.4,2.6-5.6,7.8-9.9,15.8-12.9,4.1-5,8.3-8.1,12.8-9.1,0-7.1,2.5-10.3,7.5-9.5.2-4.3,4.1-5.6,11.6-4-1.3-1.8-1.3-4.5-.1-8.1l-4.6-1.4c-7.4-14.3-18.6-26.5-33.4-36.6l-7.1.2c-64.8-37-143.1-36.1-214.2-16.3l-11.3-.9-17.2,4.5c-1.8,2-2.7,5.1-2.6,9.2-19.7,13.4-41.9,24.4-64.2,31.9.3,4.4-8.4,5-12,4.5-9.6-1.4-11.3-3.2-6.8-11.8,22.3-3.4,42.4-15.1,63.3-26.6-5.5-5.6-11.9-6.1-14.7-14.9,72.8-4.5,96.3-25.6,175-22.8,51.4,1.8,119.2,22.6,152.1,64.1,8.2,10.3,11.8,22.1,12.5,35.1l22.6,18.2c32.3,26,42,71.4,21.2,107.6-7.9,13.7-5-17.9-12.6-20-12.2-3.2-24.8-.6-37.1-.4-6.3.1-16-3.3-21.7,1-18.5,14-30.6,36-33.9,59-2,13.6,1.9,26.8,7.3,38.5l13.5,29.6-10.2-.4c21.2,41,42.5,78.7,35.3,128.7-9.7-13-9.6-27.9-21.9-38.3,5.9,78.9-25.4,161.5-88.8,208.7,2.9-18.5,17.9-28.8,16.3-47.2-30.4,44.6-67.4,80-114.2,104.3-24.7,12.8-49.1,23.1-75.8,26.5,2.4-5.5,7-6.4,10.6-9.1,21-15.4,42.8-29.7,58.7-52.8-22,9.3-37.2,27.1-64.2,35.9-3.7-45.6-26-82.3-57.6-112.3l-.6,30c-40.8-34.9-72.1-76-85.6-128.5-4.3,11.5-1,22.4-4.4,36.3-19.8-33.8-25.2-72.3-18.7-111.4-18.4,7.4-28.4,21.1-44.7,32.7,4.3-28.7,22.1-51.3,39.2-72.7-5.4-1.1-8.3,2.5-12.9.3,12.1-17.1,21.8-34.5,28.6-54.5l23.2-67.1c-11.7,2.3-17.3,8.8-27.5,7.8,2.3-7.8,7.1-13.8,11.4-20l28.6-41c-7-1.1-12.1,2.3-18.3,2.7.5-4,2.5-5.5,3.3-7.4Z"/>
    <path class="st38" d="M502.7,175.1c4.3-2.6,7.4-2.2,9.3,1.1,20.7-3.5,41.7-4,63-1.5,6.4,2.9,12,7.7,16.8,14.4,11.5,2,23.1,2.5,34.9,1.8l4.3,3.8c3.8-.5,6.4-1.8,7.8-3.7,2.7-.8,37.2-.4,39.4.3s15.7,12.5,11.9,16.3c2.2,3.3,2.6,5.1-1.6,3.8l-4.5.9c-5.1-3.1-10-6.4-14.6-10-.2,1.5-.6,3.6-1.8,3.8-4.4.7-15.8.3-20.7,0-4.6-2.4-9.9-2.1-14.6-.4-.6-1.2-1.1-2.2-1.7-2.2-30.9-1.4-62.8-.8-93.3,0-1.5,5.5-14.2,16.3-19.6,18.5s-6.8,2.4-10.5.5c-5.7-6.3-12.2-9.4-19.6-9.4-3.9,1.8-7.1,1.8-9.5-.1-.1-2.1-2.7-3-5.5-3l-89.3.2c-12.9,0-16.9,14.8-28.4,5.3-5.5-4.5-5.9-10.8-2-16.2,3.3-4.6,11.1-7,16-2.6,4.1,3.7,8.2,5.1,14,5l95.9-.9c3.5,0,8.5-.4,10.6-2.3,10.5-1.1,17.4,2.7,23.8,10.5,9.2-11,19.9-16.8,32.3-17.5l29.2-1c10.2-1.3-75.9-4.3-73.7-2.4l-3.7-1.8c-7.1-4.3-52,.5-58.1-4.8l-20.1-17.4c-7-6.1-25.2-3.1-34.2,1.3-7.4,3.6-12.4,8.6-19,2.4-5.4-5.1-5.5-12.7.3-17.8s11-3.1,17.6,1.4c12.7,8.7,32.2-4.8,45.4,10.2,3.9,4.5,9.9,12.3,16.6,13.3,19.4,2.7,38.5,0,57,.1Z"/>
    <path class="st64" d="M650.3,220.9c-2.2,12.6-14.9,9.5-23.6,3.3-10.8-1.8-21.7-1.5-32.4.7-3.5.6-5,4.3-7.4,6.2-14.9,19.2-32.6,39.8-51.5,55.2-9.3,7.6-15,9.1-26.7,8.8l-2.4,3.5c-12.5,1-12.5,18.1-9.8,27.6l-2.7,3.5c9.2,2,12.1,11.8,5.5,19.6-.9,8.8-8.7,10.4-16.5,7.4-14.2-5.6-9.3-20.3-2.7-29.9-1.4-18.7,4.6-32.2,18.1-40.4,9.2-1,17.7-3.2,25.3-6.7,18.9-18.9,37.1-37.9,54.5-56.9l-5.4.4c-14.2,15.2-29.1,29.4-44.9,42.7l-3.7-2.6c-4.8-2-4.7-4.5.3-6l-1.2-4.2,29.1-30.4c-6.7,2.6-12.9,7.1-18.6,13.5-3,4.4-34.2,5.2-36.3,4s-1-1.6-1.2-3c-7.6,2.4-22.2,6.8-26.8-.8-.5,4.1-6.6,6.1-9.9,3.4,1.1-.8-.7-2.8-2.4-3-11.5,1.1-25.7-2.9-36.6,2s-11.8,10.2-19,2.7c-5-5.3-4.9-12.7,0-17.6,6.7-6.8,11.9.3,18.8,2.1,16.3,4.4,35,3.4,50.5-.4,18.4.3,36.9-.2,55.3-1.3,13-17.3,29.5-18.3,50.3-16.6l3.3,4,4.1-3.4c6.8-.9,22.8-1.5,26.5,3.7,8.3,1.7,15.5.6,21.5-3.2-1.3-3.1-.8-3.2,1.5-3.6,13-2.3,24.8,2.7,17.3,15.9Z"/>
    <path class="st13" d="M480.5,148.5c-.2,2-.7,5.7,2.1,6.9,5.9,2.6,11.6,0,16.7.4,2-2.5,6-3,9.3-3.3,24.6-2.1,55.9-.1,79.9,4.9l1.2,4.6c8.6,8,18.3,12.1,29.1,12,6.2,3.5,12.2,4.6,18.1,3.3.2-1.5.8-3.7,1.8-3.8,7.4-.6,40.3.1,46.9,1.6l2.6,3.9c2.4,1.3,5.2,2.9,3.5,5.3-17.5,1.3-35.8,2-54.9,1.9-.4,1.3-.9,2.3-1.4,2.4-26.2,1.5-38.4,1.8-56.1-20.8l-57.7-.5c-.5-1.5-.9-2.7-1.5-2.7-10.4-.9-23.5-.7-32.4,2.7-10.4-3.2-21.7-2.1-32.9-4.9-8.6-11.2-18-19.8-30.4-25.4s-7-9.6-5.8-13.3c1.8-5.7,7-8.1,11-8.1,17.3,0,3.3,12.9,21.2,31.8,6.9,7.3,17.5,12.6,26.9,6.3,1.4-.9.5-4.9,2.9-5.3Z"/>
    <path class="st62" d="M691.7,184.4c3.2,2.3,3.2,4.6-.5,5.9l-49.5.6c-2.2,2-5.8,3.3-10.8,3.8-12.7,0-26.2,1.1-39.5-1.7s-9.7-13.6-17.1-14.5c-21.8-2.5-43.5-.1-65.8-1.5-2.7-.2-4.6-.5-5.9-1.9.8-.9,2.7-1.5,4-2.8s-1.9-1.6-1.7-2.4c1.6-2.7-9.3-3.8-7.7-.4-3.2-.7-6.5-1.1-9.6-2.1-.7,0-1.7-4.1.4-4.1l92.5.7c11.6,8.3,14.4,21.2,29.4,21l81.7-.7Z"/>
    <path class="st31" d="M447.9,255.7c3.4-3.5,12.8-2.7,14.9,2,19.3-3,38.8-4.4,58.5-4.3l2.8,3.8c.2,2,0,4-.3,6,.3,1.6.2,4-1,4.2-14.3,2.9-38.2,2.3-53,1.4-.6,0-1-1.1-1.5-2.6-9.6-.9-19.2-.7-28.5.6-.5.3-1.7.7-2,1.3,2-4.7-32.3-2.8-37.8-2.7s-10.4,2.5-14.9,5.7-13.2,1.7-16.6-4.1c-3.3-5.7-.2-11.6,4.9-15.6,6.8-5.3,10.4,2.6,16.7,4.1,18.7,4.3,39.5,2.7,57.8.2Z"/>
    <path class="st65" d="M537.2,203.6c14.3-1.3,30-1.3,44.1.3,7,.4,5.1,7.8-2,7.6-10.3-1.4-22.7.6-33.6,1.1-8.3.3-11.7,13.4-18.9,15.2-16.3,4.1-33.7-.9-50.7,1.5-3.2.4-5.6-1.7-5.7-3.8,2.5-4.1,6.2-7.6,7.5-12.4,9.1-6.8,20.9-4,28.7,4.5,9,9.8,22.4-14,30.6-14Z"/>
    <path class="st67" d="M489.3,198.6c2.8-3.9,5.7-7.9,7.9-12.1s3.3-2.5,5.6-2.5l65.1.7c6.3,0,11.8,3.6,12.9,9.4-15.4,1.4-30.1,0-45.1,2.5s-17.9,17.9-23.7,16.1-6.1-12.1-21.7-10.2-1.3-3.6-1.1-4Z"/>
    <path class="st6" d="M469.1,236.3c5.7.1,5.2,2.8,2.4,7.3-8.2,7-3.3,5.6,14.8-4.2,19.1-7.4,15.5,6.1,4.3,15.1-9.3,1.1-18.6,2.2-27.7,3.2-5,0-10.7,1-14.9-2,2.9-6,7.8-10.4,11.3-16,1.8-2.9,7-3.4,9.9-3.4Z"/>
    <path class="st66" d="M504.9,170c-2.5-.2-5.2,0-7.7-.4l-1.9-3.7h25.8c-1.2,6-6.9,10.9-11.8,9.1-.4-1.5,1.4-4.9-.3-5.4s-3.1.6-4.2.5Z"/>
    <path class="st61" d="M814.7,302.9c-18.9,29.3-23,63-5.3,95.4-7.3.2-8.1-7.4-15-6.1,17.4,39.9,42,69.5,48.8,111.7-10.3-7.2-12.6-18.2-24.3-23.7,12.1,73.2-5.3,145.2-52.1,201.4,6.3-23.6,23-69.1,17.9-92.6-15,60.7-67,128.7-119.6,159.6-6.8,2.8-23.6,4.1-17.6-5.8,29.3-36.6,51.3-79.1,53.1-126.6,1.4-36.8-6.8-68.5-24-100.4-16-29.6-39.5-52-66.5-71.1-7.5-3.9-5.8-12.9,1.8-13.4,3.4-9.3,7.4-18.4,11.9-27.3,3.2-2.8,6.1-1.5,8.8,3.8l10,11.6c2.4,1.1,4.5-1,6.4-6.2,2,2.6,4.3,4.7,7.1,6.5,14.9,9.7,36.6,10,52.3,1.3,22.7-12.6,2-28.9,3.5-56.5,1.4-26.1,17.5-47.1,39.7-59.4,13-7.2,24.9-14.2,36.3-22.4l9.2-8.2,2.7,1.1c3.2,10.2,7.6,16.3,16.8,21.9l-1.7,5.5Z"/>
    <path class="st15" d="M816,127.2c11.7,8.8,22.2,19,31.6,30.5-3.1,7.8-10.4,6.5-21.9-3.9-.3,3.8-1.6,4.4-4.1,1.5-3.3,2.4,4.9,14.5,8.3,15.8,3-2.3,4.2-1.2,2.2,2.2,6.3,2.4,7,7.7,3,13.4-4.4,9-12.8,15-23.2,18.6-6.7,13.6.8,29.1-15,32.7-17.3,3.9-44.9,10.8-44.7,33.8l33.3,1.4c-10.7,10.3-22.8,16.5-34.8,23.9-39.4,24.3-57.6,56.7-40.7,102.7,6.2,16.9-25.3,22.2-42.6,16-19-6.8-15.3-22.3-22.4-28.1-3.9,4-3.6,8.7-6.7,13.5-6.5-10-7.7-21.6-4.4-32.4l8.1-27c-10.7-2.4-20.6,1.4-31.6,2.1,4.3-15.6,14-26.8,21.1-40.2-5.3-3.5-10.8-2.2-15.6-2.3-11.6,2.3-18.1,2.7-15.6-11.8-3.8-.6-3.8-2-.3-3.2.8-1.4.3-3.6-1.5-6.5-3.7,3.4-5.9.7-6.4-8-1.9-1.8-2.7-4.6-2.4-8.5-4.4-1.1-5.4-5.7-2.9-13.8l7.4-24.7c.5-7.7,28.3-6.2,33.7-4.2s7.4,4.9,11.6,5.5,7.1-5.2,10.8-5.2c1.2-7.6,8.8-11,22.6-10.2l3.6,2.7c.5-.8,1-1.4,1.7-1.9,1.3-.9,24.6,16.7,26.4,18.7l.8,4.3c16.9,8.6,45.8,7.2,60.3-3.8-3.6-4.5-1.5-7.6,6.4-9.2,2.5-3.6,6.3-6.6,11.1-9-2-2.8-1.2-6.5,2.2-11.2-.3-10.5,6.2-15,19.3-13.6,5.4-4.6,3.5-5.5-5.8-2.6-18-3.6-35.7-9.6-53.1-18-20.4-5.7-41-11-61.6-15.8l-3.3-2.7c-7.7-1.1-5,3.5,1.2,6.3,2.4,3.4,0,5.8-7.3,7.3-1,1-2,1.9-3.2,2.6-7.9,4.9-61.1-5.2-66.9-12.4s-1.5-2.3-2.1-3.5c-4.1-1.8-7-1.8-8.8,0-3.5,12.3-47.1,3.9-28.1-9.3,13.5-1.8,8.3-14.4-.8-19.4l-1-3.4c5.7-3.5,12.2-5.7,19.4-6.6,24.1-6.7,48.7-11.6,74.6-15,33.8-4.5,66.3-.2,98.9,7.1,22.3,5,40.9,13.8,59.1,24.9Z"/>
    <path class="st33" d="M600.3,477.2c3.3-5,16.2,6.2,13.4,11.3,1.9,7.5,6.6,14.2,14.1,20.2l-.8,4.5c-1.4,3-3.9,6-7.6,9-1.7,6.5-.4,13.9,4,22.1,2.3,11.6,3.1,23,2.2,34.2,1.8.8,4.1,2,4.2,3.8.7,9.5,1.4,24.7-.9,33.6l-39.4,41-4.2,8.2-1.7,82.7,1.6,8.3v3.8c-.7,1-.7,3.3-2.9,1.9s-4.5-24.8-4.6-28.5l-.9-53.1c-16.2,10.3-10.4,23.7-17.2,22.6s-14.1-26.5-17.2-29.6c-5.5,1.5-6.8-.9-8.4-3.4,1.4-8.6,1.3-17.4-.3-26.5,1.8,9.3,1.9,18.1.3,26.5-7.2-11.1-13.2-23-19.7-35-.5-1-3.4-1.2-4.2-.8-2,.9,0,34-5.6,42.9-12.5-15.2-2.8-34.8-10-52.2-4.7,4-6.6,12.2-13.1,14s-11.8-5.7-14.6-10.7c3-1.5,6.6-.5,10.6,2.9,8.4-2.5,8.5-8.2.5-17-.7-7.8-1.5-7.7-2.3.4-2,5.6-5,10.2-8.8,13.7-6.6-11.6,8.2-27-5.8-33.2-4.9,27.9-7.6,12.1-7.6,12.2,1.6-2.6.6-9.5-1.6-5.7-3.9-5.8-3-13.7-6-20.9-8.6-20.8-10.9-42-9.5-66.1-12.6,13.4-10.8,31.1-17.6,47.8-7.3-26.4-9.6-57.8.5-82.6,17.6-14.4,43-16.7,63.7-22.6,44.8-12.8,104.4,25.8,116.2,23.7,1-.2,1.5-1.9,1.3-3.3Z"/>
    <path class="st27" d="M499.1,349.2c.6-1.7,1.2-1.6,1.9,0-3.9,13.7-7.3,27.8-4.3,42.6s4.6,9,1.1,11c-19.3,11.1-40.5,16.6-62,23.6l7.8-16.8c-12.7,3-18.2,15.3-32.3,16.8,22.1-44.4,25.8-83.1,51.3-119.4-12.4-.4-16.4,9.4-27.9,7.4,10.3-17.6,20.9-33.4,33.5-47.1l-28.6-.7c1.6-1.1,4.1-2.7,6.9-2.6,14.3.7,67.7,2.3,77.1-1,5.6-2,9.5-6.5,14.2-11.1l31.5-31.5c3.8-3.8,11.9-.7,16.9-.8-6.6,9.1-14.9,15.5-22.7,23.7l-35.4,36.7c-6.4,6.7-12.5,7.5-21.6,7.9-13.7.6-22.9,15.5-21.9,28.4.6,8.7-1.5,14.7-6.4,21.1-4.4,5.8.8,12.6,6.1,15.7s10.2-.4,14.8-4Z"/>
    <path class="st57" d="M613.7,318.7c-5.6,11.6-13.1,23.5-11.1,37.4,9.4-3.5,17.9-8.3,29.2-7.1-5.1,15.8-6.2,30.9-4.5,45.9-.6,5.1-3,10.2-7,15.1l-8.5,21.1c-.6,4.8-6.5,9.4-1.8,13.4-7.4-5.3-18.2-6.4-24.8-13.3l1.1-4c4.4.3,7.4-.5,9-2.4-10.2,1.1-21.7-11.3-18-20.4-20.7-2.8-39.6-12.9-40-38.5l-3-3.6c5.1-10.9,13-20.5,23.9-28.6,5.1,6.2,12,10.6,12.4,21.4,10.4-15.5,12.1-34.8,29.7-42.5,4.1,1.2,8.2.5,12.3-2.2,3.7-.3,4.1,2.3,1.1,8.1Z"/>
    <path class="st33" d="M638.4,515.4c6.7-.6,13,10.9,9.6,16.6-10.1-5.4,1.5,27.1,3.2,31.4,3.9,9.7,2.3,16.7-.4,26.4s2.6,10-2,13.1c2.4,1.5,4.3,2.4,3.7,3.9s-1.1,2.1-1.3,3.4c9.1-.9,5.8,29.8,4.5,34.8l-7.3,28.8c-2.5,9.7-6.5,18.3-13.1,24.3-2.2-3.6-3.7-3.7-4.7-.5-13.8,11.9-27.8,24.5-21,44.6-1.4.4-1.4,4.2-4.4,2.7-8.3-4-.5-10.5-11-16.7-2.9,11.1-2.7,22.8-9,31.4-1,.3-1.4-.3-1.4-1,0-1.3,1.2-2.1,1.4-2.8l-1.6-7.4,1.9-84,3.4-6.8,40.2-41.9s.2-12.5.6-37.6l-3.9.2c-2.6-3.2,1.5-9.8-.6-13.2-4.8-8.3-3.1-16.5-5.6-24.8-1.8-6-7.1-9.6-3.9-17.2s5.6-8.1,11.5-9.9c3-2,6.8-1.3,11.4,2.3Z"/>
    <path class="st50" d="M558.9,433.3c63.7,19.4,114.5,77,125.7,142.8,1.6,16.9-.9,35.8-8,51.4,5.7,4.9-.9,24.1-9.4,23.6,1.5-17,2.1-33.8,1.8-50.3-1.7-24.1-8.5-48.3-20.9-68.8-3.3-5.4-5.7-11.1-9.6-16.6-9.6-4.2-21.6-16.9-24.7-27l-13.4-11.3c-21.7-18.2-50.2-25.3-78-30.4l-12.7-2.9c-6.2-5.6.5-12.5,8-12.1l.8-2c.8-1.3,1.6-2.4,2.4-2.4,11.7.3,26.8,4,37.9,7.8.2,0-2.6-.3.3-1.8Z"/>
    <path class="st72" d="M904.2,230.1c10.9,16.3,13.1,39.2,8.1,58.5-7.3-8.7-10.9-17.3-21-20.7-21.7-7.2-43.5-14.1-65.7-15.9-2.8-4.6-2.1-10.9,1.4-15.2,4-5,10.5-11,15.9-6.6.1-1.2.4-2.3,1-2.8,2.3-1.8,14.6-6.5,18.3-6.7-.6,5.9.1-5.3.9-7.3,1.3-3.4,4.5-9,8.5-7.6,1.1-.8,2.2-1.5,3.1-1.3,9.2,1.9,23.4,19.8,29,27.7-1.5-.8-1.3-1.5.5-2Z"/>
    <path class="st68" d="M537.1,349l1.3,4.7c-16,27.6,2,53.6,32.2,56.5,6.8,3.1,18.1,12.8,12.3,19.6-1.3-.2-3.3.3-5.2-.4-26.4-10.7-53.1-14.5-82.7-14.8l22.2-16.2c-4.5-1.9-9.8-1.7-11.3-5.4-9.8-25,10.3-62.1,31.9-78.6,8.4,0,7,5-4.1,15-6.6,10.2,2.5,7.3,8.7,2.7,7.8,1.2,6.9,5.5-2.6,13l-2.5,4Z"/>
    <path class="st27" d="M581.2,312.4c-6,1-12.6.6-20-1.2-4.4-2.7-7.2-2.9-8.4-.6-4.2-.9-8.6-12-15.7-5.5l-20.3,18.6c-.9-.6-1.5-1.2-1.4-1.6,2-9,5.5-4.7-1.5,2.4-1.4,1.4-14.7,9.6-15.6,9.3-2-.6-3.5-2.5-4.6-4.2-3.4-7.5-3.3-18.5,0-26.3,3-7.2,9.4-9.6,15.1-8.4l13.7-.9c12.9-7.2,24.4-16.7,34.4-28.4,9.1-5.7,16.4-13.7,21.8-23.9l2.8.2c-5.6,30.3-21.8,35.3-.2,70.4Z"/>
    <path class="st37" d="M583.3,110.2c-5.2,1.4-10.6,4.7-16.9,6.9,3.9,3.8,8.2,4.9,9.5,7.8,2.1,4.9,2.5,12.4-1,15.2-3.7,3-9.2,1.1-11.8,7.5,33.2,8.3,24-1,32.6-2,3.6-.4,4.6,2.4,6.9,3.3-.6,2.5-2.5,3.6-5.9,3.4l12.9,14.2c4.1,12.1-17-1.3-19.9-4.4-18.8-8.7-62.6-3.9-90.4-6.2,0-2,1.6-4.1,4.2-5,11.9-4.1,46.5-21.6,58.2-29.7-1.4-2.5-4.5-2.8-7.2-5.7,9.9-3.3,19.3-4.8,28.9-5.3Z"/>
    <path class="st22" d="M537.3,366.1c2.2,27.8,14.5,31.7,38.4,37.1.6.1,1.1.7,1.6,1.4,4,5.2,6.1,14.7,13.9,16.4,11.8,2.6,18.3-34,24.4-32.7-1.2,16.6-9.5,30.5-19.8,41.9l-10.6,1.2c-.6-.6-2-.6-2.3-1.6-1.9-5.7-8.1-15.2-15-16.4-15.3-2.5-29.1-8.9-35.5-22.6-6.2-13.2-4.6-30.1,4.7-41.8,4.5-7.5,10.1-13.2,16.7-17.3l4.4,2.2c2.6,9.1-16.4,11.9-20.9,32.2Z"/>
    <path class="st73" d="M776.2,265.1c-8.2.3-14.7-1.4-6.6-9s2.5-.9,3.3,1.4c-.2,1-.6,2.9.5,3.2s2.1.3,3.4-1c52.4-2.9,65.7-2.8,116,17.7-20.4,4.6-44.2,8.2-63-1.4l-21.6-11c-11.1-.9-21.8-.2-32,.2Z"/>
    <path class="st47" d="M518.3,429.6c.8,1.4,3,1,4.2,2.8-5.7,1.9-10.7,2.5-12.3,8.3,4.5,2.4,8.9,3.8,12,5.9-17.9-.9-35.7-.9-53.5,1.8l-22.4,3.6c-6.5-.7-13.5-5.3-8.2-11.4,0-1.5.4-2.8,1.1-3.4,11.2-8.9,62.5-14.3,76.6-10.4.9.3,1.7,1.3,2.3,2.7Z"/>
    <path class="st35" d="M468.8,448.6c-30.5,8.6-58.8,21.8-86.8,42.4,6.4-17.8,19.1-29.5,31.4-40.4,7.7-4.2,15.7-8.3,24.1-12.3l.7,2.5c3.1,13,16.4,4.9,30.5,7.8Z"/>
    <path class="st60" d="M453.3,606.9c.6-2-1-4.2-1.6-5.7-.7-33.5,2-18.1,18.6-42.5l.3-60.5c0-8.2-13.8-14.9-3.4-24.1,4.2-3.7,9.4-3.6,13.2,0,9.8,9.4-3.3,13-2.5,27.7.6,11.1,0,21.4-1.3,32.4s2.2,19.4-1.5,27.8c-3.6,8.1-13.2,12.2-17.6,19.8-5.2,9,.5,25.5-4.2,25.1Z"/>
    <path class="st68" d="M833.9,211.5c2.4.8,3.7,3,3.8,6.8,5.8,0,9.5,1.5,11.1,4.5,5.2,5.8-10.1,4.8-9.9,3.5s6.7.9,4,3.9c-4.9,1.6-12.9,7.3-14.5,11.7s1.4,8.3-2.7,10.1c-8-.7-16.5-.2-24.4-.5-2.4-2.3-6.5-2.8-12.3-1.4l-1.5-2.5c4.7-3.4,11.3-2.8,17.3-5.6,15-6.9,6.1-24.3,15.7-30.1,6.7-4.1,11.9-8.7,16.9-13.9,3.5,2.7,1.7,6.8-5.7,12.4l2.3.9Z"/>
    <path class="st45" d="M666.9,685.2c-6.9,4.3-5-4.8-3.1-9.9-3,0-3.8-2.5-2.4-7.4,5.4-20.2,7.1-41.4,5.8-62.8-.1-1.9.4-4.7,1.8-4.2.3,3.7,3.7,7.9,2.5,13.8-2.4,11.9-2.1,23-3,35.3,5.2-7.9,5.8-15.4,8-22.5l5-13.8c1.1-8.6,2.7-16.7,4.9-24.1,2.1.2,2,3.1,2,5.6,0,32-4.9,64-21.5,90Z"/>
    <path class="st58" d="M558.9,433.3c.8.2.6,1.2,1,1.6s.2,2.7-1.2,2.1c-13.7-5.4-26.9-6.7-40.3-7.4-26.5-1.4-56-1.3-80,11.1,5.6-2.9-32.7,15.5-24.8,9.7,13.2-11.7,28.9-18.6,47.5-23.1,33.3-8.1,66.3-3.6,97.9,6Z"/>
    <path class="st54" d="M581.2,312.4c2.6,4.3-7.3,19.3-10.7,23.3-6.3-9.2-13.8-16.2-17.7-25.1s-3.1-8.5-3.7-13.1,4.4-2.8,6-3.5,2.9,1.2,3.4,2.5-2.6,2.4-2.7,3.9c-.7,12.1,20.8,4.4,25.4,12Z"/>
    <path class="st9" d="M581.4,242l-8.9,15.9c-3.1,5.6-9,6.6-14.1,11.4l-14.2,13.1c-10.4,9.6-23,15.3-35.6,12.6,3.6-3.6,10.4.8,14.8-2.2,15.1-10.2,41.9-44.4,63.4-61.7-1.6,3.2-3.8,7.9-5.4,10.9Z"/>
    <path class="st46" d="M852.8,186.7c1.2,5.6-4.8.8-4.4.8,3.5.1,6.9,2.5,2.6,4.4,2.2,2,2.7,3.6.8,5.7,10.4,6.9,13.9,14.6,10.4,23-4.1,7.3-12.2,7.3-19.3,9.5-1.9-1.3-4.9-2.1-5.4-5.4,4.4-.4,9.5,1.8,11.3-2-1.5-2.2-1.5-4.8.1-7.8l-1.7-2.9c-4.5-.4-8.9-.6-13.3-.5l-4.4,6.3c-5.6-5.5,5.7-14.2,7.8-19.7,1.6-3.9,4.3-8,7.2-11.5,3.4-4,5.9-1,8.2,0Z"/>
    <path class="st46" d="M814.7,302.9c-1.3-8.9-12.5-2.3-18.1-26.9-2.2,4.2-6.2,4.7-8.9,6.6,3.6-4.3,7.7-12.2,15-10.2s17.9,9.5,26.5,13.8c-3.8,7.1-10.8,11-14.5,16.8Z"/>
    <path class="st59" d="M558.3,333.9c-7.6,3.4-15.7,8.3-21.1,15.1.3-5.4,6.4-7.2,8.2-13.4-5.4-.8-6.3,4.4-9.1,4.5s-8.9-.4-9-3.9c-.5-12.7,22.6-22.4,10.5-22,1-.7,1.3-2.2,2.6-2.2,3.1.2,18.7,22.7,17.9,21.8Z"/>
    <path class="st24" d="M600,286.4c.4.9-.2,2.4.3,3.2-.8,5.2-.1,9.9,2.1,14.1-4.6,1.9-9,3.7-14.9,5-7.1-11.4-12.3-24.6-7.8-36.3,1.9,1.6,4.3.5,7.2-3.4,4.2-1.2,6.2,1.7,6.2,8.6l2.4,2.8c6.5-1.5,6.6.4,4.5,6Z"/>
    <path class="st69" d="M666.9,685.2c-6.7,10.5-12.5,22-22.6,30.3-3.5,1.5-4,.3-1.6-3.7,5.6-14.7,14.6-28.6,18.7-43.9.5.8-1,1.9.6,4.1,3-1.6,2.9-5.2,7-6.3,2.2,3.9-6.6,22.3-2,19.5Z"/>
    <path class="st46" d="M665,748.5c-9.9,5.8-18.7,14.3-30,18.6-8.5,3.2-9.7.9-3.8-7,4.5-6.8,11.2-11.2,16.1-17.4-1.4.8-.8,2.7,1,3l16.6,2.8Z"/>
    <path class="st63" d="M854,165.2c2.9,7-1.2,9-6,3.6-7.7,5.6-10.8,2.7-14.7-5.1-4.2,3.3-11-7-7.7-9.8,4.4-6.1,15.5,12.1,19.4,4.2-8-12.4-19.9-21.6-30.9-29.6.6-1.4,1.3-1.9,1.8-1.2,12.6,7.6,34.1,24.9,38.1,38Z"/>
    <path class="st40" d="M600,286.4c-.7-1.1,1-2.3-.3-4.4-2.1,2.1-3.2,4.9-6.6,5.3-2-6-1.3-11.3-3.7-16.3l-8.3,9.6c-2.4-2.8-.9-5.8-1.5-8.3,2.8-7.3,4.9-15.5,7.2-22.9,0,2.5-.2,5.1.5,8.2s5.9,1.8,6.1,3.9l1.5,16.7c2.4-.2,3.5-2.1,6-3,2.1,3.6,1.7,8.2-1,11.1Z"/>
    <path class="st56" d="M852.8,186.7c20.2,9.5,38.9,24.6,51.4,43.4,0,1.5.2,3.2-1,4-8.1-12.8-19.2-22.2-31.6-28.4-3.6.8-7.2-.7-10.8-4.7-5.8-2-9.1-5-9.9-9,1.1-1.6-2.2-2.5-4.2-4.4,1.7-1.5,4.1.3,6-.8Z"/>
    <path class="st5" d="M787.5,247.6c5.5-.2,10.9-.6,17.5,0-.4,2.7-2.5,2.8-3.6,3.9-9.4-.3-19.4,3.8-28.3,6s-2.5.2-2.8,1.1c-.6,1.9-1.3,5.8,1.2,5.5s4,0,4.9.9c-4.9.2-10.7,2.6-15.3-1.6,5.7-10.8,16.2-15.6,26.6-16Z"/>
    <path class="st23" d="M516.8,323.8c-3.7,9.1-13,16-15.7,25.5h-1.9c3.5-9.9,0-7.5-5.5-19.6,2.7,3.5,5.2-1.9,8-2.4,8.2-1.3,11.8-4.5,16.4-12.7,3.1,4.5-.2,6.7-1.2,9.2Z"/>
    <path class="st17" d="M686.4,589.7c-1.4,7.3,4.8,26.4-9.9,37.9-.6-20.9,9.4-32.6,8-51.4.8,4.5,2.8,8.3,1.8,13.5Z"/>
    <path class="st8" d="M854,165.2c.9,3.1,7.2,9,2.2,11.4s-10.1-1.2-13.7.7c-5.8,7-8.3-2-7.2-8.1-4,1.7-5.9-3.2-2.1-5.6,1.8,2.3,4.1,4.2,7,4.3,2.8,0,4.6-2.1,7.3-3.2,2.8-1.1,4.2,3.4,6.1,4.7l.4-4.3Z"/>
    <path class="st10" d="M632.4,407.8c-10.1-9.1-14.3,18.5-20.7,23.5.1-.9,8.7-37.7,15.5-36.2l5.1,12.8Z"/>
    <path class="st70" d="M609.7,742.2c-4.9-12.8-.3-22.3,7.8-32s13.3-15.7,17.8-12.1c-.7,6.8-8.6,9.5-11.6,15.7-2.4,4.9-6.6,9.2-8.6,14.2s-1.8,13-5.4,14.1Z"/>
    <path class="st71" d="M635,767.1c-7,2.7-13.5,10-22.4,9.9,3.2-8.4,14.5-10.6,18.7-17-.2,1.6-.6,3.2-1.1,4.8-.8,2.6,3.2,1.7,4.8,2.2Z"/>
    <path class="st48" d="M613.7,318.7c-.5-2,1-4.6-1.1-6.2-3.8,4.5-8.8,9.7-11.7,4.8s2.2-3,2-3.6c-.3-1-1.6-1-2.6-.9,5.6-2.5,11.3-5.6,18.8-3.3-.2,4.2-4,6.3-5.4,9.2Z"/>
    <path class="st40" d="M615.9,301.5c-3.2,3.8-9.2.6-13.5,2.4-6.1-1-4.9-10.2-2.1-14.1,2.1,3.1,1.9,6.8,2.3,11.5l13.3.3Z"/>
    <path class="st29" d="M842.6,177.4c-1,4-5.9,6.2-7.5,9.5,1-4.7-2.1-8.8-3-13.4-.3-2.6.7-4.1,3.3-4.2.4,1.1,4.4,11.1,7.2,8.1Z"/>
    <path class="st55" d="M655.9,419.6c-2-1.3-5.7-.7-6.8-3.9-1.5,2.6-1.8,3.7-2.8,4.9-1.9,2.4-2.4.5-3.9-1.3,4.7-1,3.6-6,4.2-11.5l9.3,11.8Z"/>
    <path class="st44" d="M644.4,715.5c-2.2,1.8-3,5.6-7,5.5-.8-4.7,4.2-6.4,5.3-9.3.2,1.4.5,2.8,1.6,3.7Z"/>
    <path class="st4" d="M703.4,181.3l3,3.1c-1.9,24.6,29,38.7,49.6,27.2l4.5,2.1c5.5,2.1,11.5.8,18-3.8l4.7,2.6c-3,4-4.9,8.7-11.1,9-5.2,4.6-10.3,5.9-15.4,3.9-13.9,7.1-47,5.8-57.5-5.9-.3-.3,0-1.2.4-2.3-3.9.8-9.1-5.6-9.4-9.6l-13.1-12.8h-46c.8-2.9,4.3-1.7,7.5-2.7.1-1.5-2.2-2.2-2.7-3.3s6.6-1.7,4.6-1.7l50-.3c1.9,0,1.7-1.1,1.4-2.3-.5-2.1-2-3.7-3.5-5.3,1.4-4.2,4.4-3.9,9.1.9,2.3-1.6,3.8-.7,6,1.2Z"/>
    <path class="st1" d="M669.4,202.4c5.2,2,9.4,5.3,7,11-5.5,2.4-11.8,2.6-18.8,1.7-3.5,3.4-3.7,5.9-7.4,5.8-.9-3.1-.9-7.1-3.1-10.4-3.8-5.8-11.4-4.9-15.7-.7-6.9,6.9-15,2.2-21.6,1.9.5-2.9,1.7-4.3,3.6-4.1h-29.6s-2.7-3.8-2.7-3.8l-44.1-.3c-.8-1.1.8-1.3,2.3-1.7l129.9.5Z"/>
    <path class="st11" d="M688.6,211.4c2.6-1.7,8.5,4.7,7.3,7.6,3.2.5,6.5,2.2,10,5,11.4,4.7,23.4,6.7,36,5.9l1.8,2.4,16.6-5.1c6,2,6.4,4.3.7,7.4-11.9,6.5-43.6,7.5-55.6-.2-8.1-2.2-14.1-9.5-21.1-15l-7.8-6.1c-3.3-2.6-4.9-7.4-7-11,7.3,0,13.7,3.4,19.1,9Z"/>
    <path class="st39" d="M699.6,217.1c1.1,4-.4,4.2-3.7,1.9l-7.3-7.6c1.3-.8,1.5-2.4,1.6-3.8l9.4,9.6Z"/>
    <path class="st41" d="M524.1,257.2l-61.3.5c2.3-6.7,29,6.3,33.9-20.4-7.6,4.8-34.7,21.8-34.1,11.6.3-4.8,9.4-7.2,6.5-12.6h51.1c19.2,0,20.2-24.3,39-15.6l-35.1,36.5Z"/>
    <path class="st36" d="M610,211.8c-10.6-.5-20.4,1.1-30.6-.3,2.9-1.5,2.2-4.7,2-7.6h45.9c2.6,0,4.4.8,4.1,3-.7,4.7-17.1,4.3-21.3,4.9Z"/>
    <path class="st52" d="M602.6,148.8c22.8,9,47.6,14.4,72.2,13.3,8.5-3.8,10.9-5.6,7.1-5.5-8.8-8.1-9.1-10.8-1-8.1,27.1,4.6,54.4,9.5,80.6,20.2,11.2,4.6,42,21.2,46.3,6.8,3.8,2.8,3.8,6.2,3.2,10-.4,2.4-2.8,5.8-6.7,6.1l-14.4.9c1.3,8.9-2.6,14.3-6.7,19.9-8.4,2.4-16.4,5.4-26.1,6.9l3.4-5.6c-1.6-3.4-.3-4.4,2.6-2.1,3.5-1.7,13-8.2,12.7-12.2-.2-3.1-5.2-14.2-10.2-10.3-7.2,14.7-17.9,25.8-35.5,20.7-4.9,5.3-11.3-2.6-14.4-7.3-4-6-5.5-13.4-6.2-20.5-2.2,1.5-3.7,1.1-6.2-.6-1.7.9-4.8,3-6.8,2.7-3.3-1.6-5.1-4.7-8.3-4.8l-51.3-1.8c-6.4,1-13,0-19.7-3.2-7.6-6.5-14.4-13.8-20.5-21.9-1.3-.4-1.8-1.3-1.4-3.2,2.9.1,5.1.1,7.3-.2Z"/>
    <path class="st18" d="M636.9,177.4c.2,1.7-3.8,2.4-5.9,1.8-19.1-5.2-23.7,6.2-41.3-17.1,1.8-4.7,15.9,11.7,16.2,4.5.2-4.5-8.9-7.5-9.2-14.3l22.9,18.9c6.4,5.3,10.1,6,17.3,6.2Z"/>
    <path class="st42" d="M772,221.4c-1.2,2.3-4.9,2.8-5,5.9,1.7,1,4.1,1.7,4.3,2.6,1.9,6.7-53.7,20.9-66.1,4.6,9.6,4.7,50.2,4.3,57.7-3.6l-19.4,1.5-.8-2.6c4.6-1.3,9.1-2.8,13.7-4.4,3.3-3.9,10.8-3.6,15.4-3.9Z"/>
    <path class="st34" d="M680.9,148.5c-1.5,0-3.5-.6-4.1,1.2,8,5,15.6,6,23,9.1-9.2,2.5-17.1,3-25.1,3.3,1.3-1.6,3.2-2.6,5.3-4.5-2.1-4.3-5.7-6.4-10.4-8.8,4.3-5.6,8.2-.8,11.2-.3Z"/>
    <path class="st21" d="M825.6,153.9c1.6,3.9,4.9,6.7,7.7,9.8l2.1,5.6c.1,1.2,0,2.9-.9,3.9s-1.6.5-2.4.3c-.2-.9-1.8-1.4-2.2-2.2-3.9-1.9-10.3-11.9-8.3-15.8.5-1.9,2.7-1.5,4.1-1.5Z"/>
    <path class="st3" d="M821.6,155.4c1.5,5.9,5.8,10.4,8.3,15.8-.3,1.4.4,3.3-1.6,4.1l-9.8-17.8c-.9-1.7-.2-3.4,1.2-3.3s1,.6,1.8,1.1Z"/>
    <path class="st14" d="M585.2,755.8c-2.2-2-3.7-5.7-3.7-9.7v-74.4c.1-5.7.8-12.3,4.8-16.4l39.8-40.7c1.8-12.2,2.2-24.7-.4-36.2,3.8-1.5,1.7-34.3-.2-39-2.4-6.3-8.2-13.2-.5-18.9s11-1.1,13.7,3.3c7,11-4.9,12.4-5,24.7l-.7,62.4c0,3.6-.9,7.5-3.3,10l-35,35.5c-2.9,3-6.3,7-6.4,11.4l-1.3,68.3c-.1,6.7-2.3,14-1.8,19.9Z"/>
    <path class="st12" d="M466.7,627.9c-1.4-6.8,4.1-10.4,5.4-15.5,2.7-10.8-1.1-23,3.7-33.2,5.2-11.2,17.1-17.2,23.1-28l.3-66.6c0-11.5-13.7-15-4.9-25.1,3.5-4.1,9.5-4.9,13.9-1.9,12,8.2-2.5,15.7-1.7,32.7s-.1,61.6-3.6,67c-5.7,9-16.8,14.1-21.4,23.8-3.9,8.2-1,20-.7,28.7s5,7.3,6.2,10.9c2.3,7-1.4,11.5-8.3,13.6s-7.6-3.4-11.9-6.5Z"/>
    <path class="st26" d="M566.9,638.1c-13.2,13.6-.4,46.2-9.1,60.4-3.9-18.2-5-38.2-1.1-55.7,2.5-11,37-36.4,37.2-45.7l1-83.8c.2-13.1-12.9-17.9-3.5-27.6,4.5-4.7,10.2-2.3,13.6,1.1,10.4,10.2-4.2,10-4.3,26.4l-.5,84c0,4.8-3.1,9.6-6.2,12.8l-27.1,28Z"/>
    <path class="st53" d="M534,669.6c-1.3-18.3-10.6-41.5-.3-53.6l27.5-32.2c1.4-1.7,4.7-23.1-3.8-38.9-3.1-5.7-1-10.9,2.9-13.9s9.9-3.3,13.3.7,4.7,9,1.4,13.2c-11.5,14.5-.7,36.4-8.8,44.8l-28.2,29.2c-2.6,7.6,3.1,52-3.9,50.7Z"/>
    <path class="st2" d="M504.7,671.5c-3.5-2.6-3.8-8-3.8-13l.6-63.2c0-7.8,10.3-15,15.8-19.3,10.1-7.9,11.2-16.6,10.7-28.5-.3-8.7.1-15.5-6.3-22.2-3.2-3.4-1.4-10.8,1.5-13.3s9.3-3.6,13.1-.6c12.8,9.9-3.7,15-2.1,34.6,2.4,30.2-6.1,24-26.7,48.8-3.3,24.9-2.3,49.2-2.8,76.7Z"/>
    <path class="st49" d="M613.7,488.4c9.7,8.1,17.4,16.7,24.7,27-2,2.9-8.8.1-11.4-2.3s-24.3-23.4-13.3-24.7Z"/>
    <path class="st19" d="M577.3,404.6c-11.8,1.3-24.1-2.1-32.7-11s-9.4-17.9-7.3-27.5c1.3-.7,1.8.5,2,2,2.2,18.9,17.3,31.9,36.2,33.4,2.1.2,2.7,1.5,1.8,3.1Z"/>
    <path class="st30" d="M635.3,698.1c-7.7,6.9-20.8,14-22.4,24.1l-3.2,20c-7.3-4.2-6.1-19.3-.8-25.3l18.8-21.2c2.6-3,4.6-29.7-3.3-44.1-2.7-4.8,1.5-10.3,4.7-11.5,5-1.9,10-.5,12.8,2.9,8.8,10.8-6.1,14.7-5.2,26.9.7,10-.4,19.3-1.3,28.3Z"/>
    <path class="st43" d="M620.2,686.5c-12,7.5-14.5,29.3-24.1,28.8-1.9-13.5,2.5-28.5,9.6-40.2,2.7.6,3.4,3.8,4.5,4.8,2.1,1.9,8.9-5.2,11.8-.4s1.2,5.2-1.8,7Z"/>
    <path class="st51" d="M871.6,205.7c-.5,3.1-14.5,24-9.4,15-.7-9.3-7.8-16.8-15.8-22.2l4.6-6.5c7.8,2.8,15.6,7.1,20.6,13.7Z"/>
    <path class="st7" d="M470.8,478.6c2.1-1.6,4.3-.3,5.5,1s1.4,4-.2,5.6-3.5.8-5-.4-2.9-4.3-.3-6.2Z"/>
    <path class="st32" d="M848.8,222.8c-3.9-.2-9.8,1.1-13.5-1.6-3.1-2.3-1.7-7.1-1.4-9.7,2.7-3.9,8.7-5.4,14.3-3.2,3.1,1.2,4.8,5,4.5,7.6s-2,5.6-3.9,6.9Z"/>
    <path class="st0" d="M730.1,209.7c18.8,5.4,28.7-7.2,36.8-22.5,13.7,5.8,8.4,20.5-3.8,24.4-.7.5-1.9,1.7-2.6,2.1-18.4,9.2-38.5,7.9-51.7-9.2-5.4-7-8.8-14.9-5.4-23.2,2.9-1.5,5-5,9.7-4,.4,14.6,4.7,27.6,17,32.5Z"/>
    <path class="st28" d="M756.7,225.3c-3.6,4.4-8.9,3.4-13,7-17.4,1.4-35.4-.4-47.8-13.3,1.4-.1,2.8-.7,3.7-1.9,11.3,11.5,42.2,10.4,57.1,8.2Z"/>
    <path class="st20" d="M763.1,211.6c2.7-5.3,8.6-10.2,9-17s-2.6-5.2-4.6-5.2-10.1,31.3-37.4,20.4c22.8,1.4,24.5-6.6,36.4-25.1,1.9-.8,13.7,13.2,13.4,14.5-.9,3.9-7.9,16.1-16.9,12.5Z"/>
    <path class="st10" d="M727,180.3c.9-1.9,4.8-1.6,5.7-.8s1.8,4.2,1,5.8-3.1,1.5-4.7,1.4-3.8-2.7-2-6.4Z"/>
  </g>
  <path class="st25" d="M705.7,950.6l153.8,2.6c2.2,0,4.1-1.8,4.1-4v-6.5c0-2.3-1.9-4.1-4.1-4l-153.8,4c-2.2,0-3.9,1.8-3.9,4h0c0,2.2,1.8,4,4,4Z"/>
  <path class="st25" d="M1132.5,942.7l-153.8-2.6c-2.2,0-4.1,1.8-4.1,4v6.5c0,2.3,1.9,4.1,4.1,4l153.8-4c2.2,0,3.9-1.8,3.9-4h0c0-2.2-1.8-4-4-4Z"/>
</svg>